HIERARCHY
ROOT Hips
{
 OFFSET 0.000000 0.000000 0.000000
 CHANNELS 6 Xposition Yposition Zposition Yrotation Xrotation Zrotation
 JOINT Chest
 {
  OFFSET 0.000000 9.585900 0.002600
  CHANNELS 3 Yrotation Xrotation Zrotation
  JOINT Chest2
  {
   OFFSET 0.000000 9.601200 -0.005300
   CHANNELS 3 Yrotation Xrotation Zrotation
   JOINT Chest3
   {
    OFFSET 0.000000 9.561800 0.000000
    CHANNELS 3 Yrotation Xrotation Zrotation
    JOINT Chest4
    {
     OFFSET 0.000000 9.552100 0.000000
     CHANNELS 3 Yrotation Xrotation Zrotation
     JOINT Neck
     {
      OFFSET 0.000000 14.453000 0.000000
      CHANNELS 3 Yrotation Xrotation Zrotation
      JOINT Head
      {
       OFFSET 0.000000 8.936500 -0.011300
       CHANNELS 3 Yrotation Xrotation Zrotation
       End Site
       {
        OFFSET 0.000000 17.073600 -0.006000
       }
      }
     }
     JOINT RightCollar
     {
      OFFSET -2.921100 9.558500 0.000000
      CHANNELS 3 Yrotation Xrotation Zrotation
      JOINT RightShoulder
      {
       OFFSET -13.519700 0.000000 0.000000
       CHANNELS 3 Yrotation Xrotation Zrotation
       JOINT RightElbow
       {
        OFFSET 0.000000 -29.696600 0.000000
        CHANNELS 3 Yrotation Xrotation Zrotation
        JOINT RightWrist
        {
         OFFSET 0.000000 -24.004700 0.000000
         CHANNELS 3 Yrotation Xrotation Zrotation
         End Site
         {
          OFFSET 0.000000 -17.728500 0.000000
         }
        }
       }
      }
     }
     JOINT LeftCollar
     {
      OFFSET 2.921100 9.558500 0.000000
      CHANNELS 3 Yrotation Xrotation Zrotation
      JOINT LeftShoulder
      {
       OFFSET 13.519700 0.000000 0.000000
       CHANNELS 3 Yrotation Xrotation Zrotation
       JOINT LeftElbow
       {
        OFFSET 0.000000 -29.696600 0.000000
        CHANNELS 3 Yrotation Xrotation Zrotation
        JOINT LeftWrist
        {
         OFFSET 0.000000 -24.004700 0.000000
         CHANNELS 3 Yrotation Xrotation Zrotation
         End Site
         {
          OFFSET 0.000000 -17.728500 0.000000
         }
        }
       }
      }
     }
    }
   }
  }
 }
 JOINT RightHip
 {
  OFFSET -7.771700 -0.012900 -0.001300
  CHANNELS 3 Yrotation Xrotation Zrotation
  JOINT RightKnee
  {
   OFFSET 0.000000 -40.869800 0.001200
   CHANNELS 3 Yrotation Xrotation Zrotation
   JOINT RightAnkle
   {
    OFFSET 0.000000 -39.717900 0.002100
    CHANNELS 3 Yrotation Xrotation Zrotation
    JOINT RightToe
    {
     OFFSET 0.000000 -4.965400 11.033500
     CHANNELS 3 Yrotation Xrotation Zrotation
     End Site
     {
      OFFSET 0.000000 -1.423100 5.872300
     }
    }
   }
  }
 }
 JOINT LeftHip
 {
  OFFSET 7.771700 -0.012900 -0.001300
  CHANNELS 3 Yrotation Xrotation Zrotation
  JOINT LeftKnee
  {
   OFFSET 0.000000 -40.869800 0.001200
   CHANNELS 3 Yrotation Xrotation Zrotation
   JOINT LeftAnkle
   {
    OFFSET 0.000000 -39.717900 0.002100
    CHANNELS 3 Yrotation Xrotation Zrotation
    JOINT LeftToe
    {
     OFFSET 0.000000 -4.965400 11.033500
     CHANNELS 3 Yrotation Xrotation Zrotation
     End Site
     {
      OFFSET 0.000000 -1.423100 5.872300
     }
    }
   }
  }
 }
}
MOTION
Frames: 11
Frame Time: 0.008333
-85.869824 43.999866 18.732994 174.188356 -24.312667 -0.399261 0.769182 18.526876 2.679283 0.029888 2.155793 0.349764 0.056547 3.561087 0.578715 0.566575 16.091864 2.704934 0.234620 13.231054 -5.205670 1.477068 -11.769573 -5.634316 8.371757 1.115380 -3.397314 -5.978628 -3.499009 -4.692616 148.595952 -76.555194 -131.372474 -1.152174 1.667771 -33.823620 -13.458957 -0.263101 -4.859950 14.292525 -1.130091 3.597106 164.732138 -65.193380 170.709535 14.774331 7.941731 41.905827 -3.413397 -68.246606 13.263076 -147.137379 69.629278 -145.967823 -11.924626 -24.267412 8.191583 0.618503 -0.944174 0.346926 4.302635 -51.398660 -1.369726 175.285870 58.594664 174.968237 -1.696315 -42.041288 2.542414 -0.028350 0.179078 -0.019910
-85.861871 43.994344 18.700307 174.239452 -24.099808 -0.398391 0.712618 18.379746 2.657004 0.026726 2.201997 0.352982 0.055977 3.534880 0.576627 0.557944 16.078258 2.711840 0.244442 13.166350 -5.223726 1.460832 -11.771889 -5.634809 8.434579 1.103928 -3.440776 -6.057535 -3.587937 -4.719243 149.003516 -76.494353 -131.788482 -1.147825 1.662325 -33.828622 -13.445852 -0.330987 -4.858433 14.379940 -1.071142 3.557201 164.754822 -65.353913 170.746227 14.857767 7.997527 42.112673 -3.437988 -68.454930 13.277468 -147.197856 69.573338 -146.035315 -11.938829 -24.347303 8.210182 0.609615 -0.908113 0.333534 4.292155 -51.596406 -1.423272 175.298211 58.574709 174.978120 -1.694689 -42.046916 2.540338 -0.028731 0.183623 -0.019808
-85.866931 43.997768 18.649174 174.352576 -24.012121 -0.344323 0.573330 18.449296 2.561032 0.027586 2.153453 0.349547 0.059909 3.469378 0.571420 0.549028 16.063449 2.715686 0.240687 13.154590 -5.230482 1.454789 -11.787048 -5.639784 8.457029 1.092355 -3.459441 -6.072638 -3.605924 -4.720745 149.286500 -76.390362 -132.109361 -1.150761 1.655619 -33.849042 -13.437403 -0.355299 -4.861622 14.454319 -1.027407 3.511769 164.745800 -65.501109 170.813844 14.933956 8.040434 42.321776 -3.293771 -68.536902 13.059847 -147.381617 69.499130 -146.242224 -12.046975 -24.421295 8.274808 0.613812 -0.924961 0.346537 4.285353 -51.640767 -1.576659 175.323778 58.562242 174.981601 -1.721006 -42.069953 2.548459 0.000770 0.188868 -0.006821
-85.861789 43.995322 18.615985 174.361588 -23.830716 -0.329921 0.551780 18.418720 2.548989 0.027951 2.105432 0.345252 0.067596 3.407991 0.568034 0.532312 16.043845 2.715855 0.218729 13.157343 -5.230228 1.472413 -11.810880 -5.655350 8.484379 1.085923 -3.475483 -6.133273 -3.676239 -4.749903 149.618154 -76.347771 -132.434431 -1.157556 1.648381 -33.876802 -13.428841 -0.368965 -4.866837 14.520965 -1.002573 3.458933 164.751272 -65.633412 170.878392 15.007523 8.082229 42.520276 -3.275329 -68.709755 13.079451 -147.424859 69.457560 -146.295955 -12.094424 -24.512590 8.301115 0.604103 -0.898577 0.332679 4.282192 -51.793075 -1.606496 175.349270 58.543435 174.987583 -1.713629 -42.094538 2.547155 0.001280 0.194703 -0.007840
-85.853344 43.993631 18.585366 174.342244 -23.652332 -0.336780 0.561866 18.356750 2.565518 0.036257 2.039287 0.341327 0.046457 3.486655 0.571968 0.530991 15.934484 2.709489 0.216010 13.147448 -5.237833 1.452123 -11.820667 -5.658717 8.526638 1.088801 -3.500676 -6.191615 -3.748114 -4.753764 149.883962 -76.296576 -132.713681 -1.162261 1.642853 -33.897841 -13.420454 -0.390545 -4.874362 14.565226 -0.988444 3.432094 164.755213 -65.753650 170.987614 15.075228 8.127523 42.696398 -3.312051 -68.878210 13.186122 -147.423721 69.423352 -146.301960 -12.126311 -24.579539 8.318695 0.600225 -0.871673 0.340254 4.257933 -51.941867 -1.578267 175.366543 58.519549 174.985798 -1.704414 -42.132067 2.540908 -0.005155 0.204096 -0.010913
-85.844738 43.989207 18.565394 174.316400 -23.424039 -0.360349 0.579608 18.242856 2.599124 0.047028 1.974391 0.337855 0.027590 3.527704 0.573128 0.527623 15.864432 2.709808 0.211795 13.136855 -5.248557 1.452087 -11.831911 -5.668341 8.566256 1.094357 -3.527664 -6.235915 -3.821667 -4.750025 150.099528 -76.238982 -132.961847 -1.165225 1.641233 -33.910416 -13.447020 -0.421417 -4.881527 14.643832 -0.969648 3.400850 164.809343 -65.852227 171.056062 15.133922 8.173654 42.847404 -3.390547 -69.096399 13.339744 -147.363827 69.400185 -146.238626 -12.132557 -24.637027 8.299073 0.612857 -0.836920 0.368544 4.226382 -52.155539 -1.525831 175.387756 58.501779 174.989253 -1.694042 -42.157461 2.535958 -0.012295 0.245515 -0.011375
-85.840298 43.990448 18.536410 174.286301 -23.271710 -0.364283 0.602746 18.147131 2.613627 0.019261 2.088402 0.342056 0.054517 3.393442 0.566576 0.508886 15.847823 2.713308 0.206002 13.126039 -5.261440 1.476489 -11.842122 -5.677174 8.597062 1.113572 -3.569291 -6.266919 -3.913155 -4.727161 150.273109 -76.185208 -133.181928 -1.166994 1.646434 -33.917731 -13.432860 -0.447105 -4.889054 14.688791 -0.947149 3.337796 164.971396 -65.930775 171.006437 15.183848 8.218323 42.974732 -3.388476 -69.238430 13.413296 -147.371215 69.372889 -146.253059 -12.120272 -24.694561 8.294566 0.643201 -0.832348 0.387335 4.183956 -52.278529 -1.478872 175.419748 58.480902 174.989360 -1.685679 -42.182995 2.522326 -0.008527 0.244999 -0.007668
-85.847926 43.991006 18.512424 174.326562 -23.099690 -0.338754 0.528153 18.115765 2.561561 0.018274 2.068926 0.340913 0.071963 3.309178 0.565921 0.489732 15.832612 2.717213 0.208679 13.111921 -5.275280 1.464354 -11.846518 -5.687155 8.621649 1.112963 -3.597837 -6.280198 -3.992939 -4.718465 150.416045 -76.138324 -133.384940 -1.168294 1.656110 -33.922672 -13.417530 -0.471971 -4.895319 14.715178 -0.925480 3.241263 165.256654 -65.993390 170.849307 15.222835 8.266503 43.074995 -3.285005 -69.403030 13.318310 -147.351371 69.330679 -146.273785 -12.085904 -24.753009 8.348915 0.614433 -0.832516 0.375026 4.200446 -52.433670 -1.563722 175.418304 58.475332 174.973837 -1.708452 -42.175470 2.531688 0.007467 0.245492 0.001399
-85.846753 43.990522 18.496919 174.298948 -22.900563 -0.354599 0.536933 18.056057 2.578407 0.023301 2.026045 0.340007 0.051511 3.338049 0.564857 0.519789 15.718932 2.718757 0.214262 13.103340 -5.282253 1.422992 -11.859535 -5.705259 8.632545 1.114612 -3.614844 -6.286722 -4.053836 -4.714079 150.566293 -76.081814 -133.609187 -1.170742 1.668292 -33.927397 -13.434109 -0.490896 -4.889797 14.747844 -0.917720 3.201079 165.371216 -66.023316 170.808536 15.243278 8.313030 43.223888 -3.285696 -69.591523 13.400470 -147.267381 69.303612 -146.198082 -12.040349 -24.831149 8.368086 0.539347 -0.794190 0.358521 4.194706 -52.625017 -1.541530 175.436168 58.459858 174.981596 -1.689368 -42.162236 2.524671 0.004300 0.225173 0.000362
-85.847983 43.992904 18.479315 174.277510 -22.734948 -0.366684 0.541891 18.000792 2.590288 0.022475 2.011142 0.339467 0.043789 3.332601 0.563192 0.538650 15.641021 2.720919 0.197397 13.097860 -5.292423 1.438220 -11.871254 -5.715793 8.646022 1.108698 -3.624814 -6.299461 -4.131697 -4.721630 150.684971 -76.049091 -133.799941 -1.173149 1.682090 -33.931585 -13.504097 -0.512887 -4.864657 14.815888 -0.914048 3.061278 165.674961 -66.075237 170.580975 15.247848 8.342935 43.336080 -3.254595 -69.747398 13.443722 -147.173410 69.282151 -146.111728 -12.031018 -24.839628 8.393585 0.507874 -0.806634 0.349750 4.180819 -52.778306 -1.522480 175.452422 58.443271 174.985792 -1.684956 -42.157003 2.518726 0.014459 0.196247 0.004999
-85.849935 43.994641 18.468034 174.274767 -22.549270 -0.393062 0.529998 17.923269 2.611604 0.021294 1.996933 0.338975 0.041712 3.310139 0.562576 0.505475 15.607745 2.730858 0.219930 13.064715 -5.324452 1.412652 -11.900338 -5.740055 8.700285 1.086120 -3.665834 -6.316746 -4.234877 -4.728646 150.775380 -76.038976 -133.954568 -1.175081 1.689901 -33.939089 -13.487561 -0.556682 -4.867004 14.839734 -0.932240 2.960726 165.956787 -66.128011 170.462397 15.256094 8.364728 43.340923 -3.250438 -69.923040 13.494292 -147.092546 69.270005 -146.015578 -12.060374 -24.846000 8.415047 0.528781 -0.804151 0.310216 4.141239 -52.955060 -1.491489 175.456038 58.438660 174.973442 -1.681497 -42.167427 2.517035 0.014401 0.215939 0.005635
